<?xml version="1.0" encoding="UTF-8"?>
<!DOCTYPE svg PUBLIC "-//W3C//DTD SVG 1.1//EN" "http://www.w3.org/Graphics/SVG/1.1/DTD/svg11.dtd">
<svg version="1.1" xmlns="http://www.w3.org/2000/svg" xmlns:xlink="http://www.w3.org/1999/xlink" x="0" y="0" width="577" height="577" viewBox="0, 0, 577, 577">
  <g id="Layer_1">
    <path d="M537.157,433.199 L300.11,22.585 C297.688,18.409 293.261,15.903 288.5,15.903 C283.739,15.903 279.312,18.492 276.89,22.585 L39.843,433.199 C37.421,437.376 37.421,442.471 39.843,446.563 C42.265,450.74 46.692,453.245 51.453,453.245 L525.547,453.245 C530.308,453.245 534.735,450.656 537.157,446.563 C539.579,442.387 539.579,437.292 537.157,433.199 z" fill="#F6BD16" id="sign_border"/>
    <path d="M510.625,419.472 L298.871,52.671 C296.708,48.94 292.753,46.702 288.5,46.702 C284.247,46.702 280.292,49.015 278.129,52.671 L66.375,419.472 C64.211,423.203 64.211,427.754 66.375,431.41 C68.539,435.141 72.493,437.379 76.746,437.379 L500.254,437.379 C504.507,437.379 508.461,435.066 510.625,431.41 C512.789,427.68 512.789,423.128 510.625,419.472 z" fill="#000000" id="sign_border"/>
    <path d="M97.563,413.447 L288.575,84.036 L479.586,413.447 z" fill="#F6BD16" id="polygon7"/>
    <g id="path1995">
      <path d="M316.847,370.996 C316.851,386.614 304.192,399.276 288.575,399.276 C272.957,399.276 260.298,386.614 260.302,370.996 C260.298,355.379 272.957,342.717 288.575,342.717 C304.192,342.717 316.851,355.379 316.847,370.996 z" fill="#000000"/>
      <path d="M316.847,370.996 C316.851,386.614 304.192,399.276 288.575,399.276 C272.957,399.276 260.298,386.614 260.302,370.996 C260.298,355.379 272.957,342.717 288.575,342.717 C304.192,342.717 316.851,355.379 316.847,370.996 z" fill-opacity="0" stroke="#000000" stroke-width="0.621" stroke-opacity="0.4" stroke-linecap="square"/>
    </g>
    <g id="rect1997">
      <path d="M288.575,172.501 C273.169,172.501 260.768,185.165 260.768,200.897 L268.99,300.367 C270.56,313.233 271.901,320.523 277.212,323.952 C280.679,325.531 284.52,326.43 288.575,326.43 C292.61,326.43 296.434,325.542 299.889,323.976 C305.229,320.558 306.586,313.262 308.159,300.367 L316.381,200.897 C316.381,185.165 303.98,172.501 288.575,172.501 z" fill="#000000"/>
      <path d="M288.575,172.501 C273.169,172.501 260.768,185.165 260.768,200.897 L268.99,300.367 C270.56,313.233 271.901,320.523 277.212,323.952 C280.679,325.531 284.52,326.43 288.575,326.43 C292.61,326.43 296.434,325.542 299.889,323.976 C305.229,320.558 306.586,313.262 308.159,300.367 L316.381,200.897 C316.381,185.165 303.98,172.501 288.575,172.501 z" fill-opacity="0" stroke="#000000" stroke-width="0.886" stroke-linecap="square"/>
    </g>
    <path d="M26.44,474.656 L37.7,523.39 L40.125,536.959 L42.608,523.679 L52.193,474.656 L70.959,474.656 L81.063,523.39 L83.662,536.959 L86.26,523.91 L97.635,474.656 L115.708,474.656 L91.746,559.767 L74.77,559.767 L64.492,509.994 L61.489,493.538 L58.487,509.994 L48.209,559.767 L31.694,559.767 L7.558,474.656 z" fill="#F6BD16"/>
    <path d="M143.251,527.605 L164.846,527.605 L154.222,494.115 z M144.348,474.656 L164.442,474.656 L194.583,559.767 L175.298,559.767 L169.812,542.272 L138.459,542.272 L132.569,559.767 L113.976,559.767 z" fill="#F6BD16"/>
    <path d="M223.165,489.438 L223.165,512.304 L243.317,512.304 Q249.322,512.304 252.325,510.918 Q257.637,508.493 257.637,501.333 Q257.637,493.595 252.498,490.939 Q249.611,489.438 243.837,489.438 z M247.532,474.656 Q256.482,474.829 261.304,476.85 Q266.125,478.871 269.474,482.798 Q272.246,486.031 273.863,489.958 Q275.479,493.884 275.479,498.908 Q275.479,504.971 272.419,510.831 Q269.359,516.692 262.314,519.117 Q268.204,521.485 270.658,525.844 Q273.112,530.204 273.112,539.154 L273.112,544.87 Q273.112,550.702 273.574,552.781 Q274.267,556.072 276.807,557.631 L276.807,559.767 L257.233,559.767 Q256.425,556.938 256.078,555.206 Q255.385,551.626 255.327,547.873 L255.212,539.962 Q255.097,531.82 252.238,529.107 Q249.38,526.393 241.527,526.393 L223.165,526.393 L223.165,559.767 L205.785,559.767 L205.785,474.656 z" fill="#F6BD16"/>
    <path d="M290.492,474.656 L309.143,474.656 L343.037,534.072 L343.037,474.656 L359.609,474.656 L359.609,559.767 L341.824,559.767 L307.064,499.312 L307.064,559.767 L290.492,559.767 z" fill="#F6BD16"/>
    <path d="M392.464,559.767 L374.795,559.767 L374.795,474.656 L392.464,474.656 z" fill="#F6BD16"/>
    <path d="M408.747,474.656 L427.397,474.656 L461.292,534.072 L461.292,474.656 L477.863,474.656 L477.863,559.767 L460.079,559.767 L425.319,499.312 L425.319,559.767 L408.747,559.767 z" fill="#F6BD16"/>
    <path d="M551.657,501.217 Q549.636,492.498 541.783,489.034 Q537.395,487.128 532.025,487.128 Q521.747,487.128 515.136,494.895 Q508.524,502.661 508.524,518.251 Q508.524,533.957 515.684,540.482 Q522.844,547.006 531.967,547.006 Q540.917,547.006 546.634,541.839 Q552.35,536.671 553.678,528.298 L533.988,528.298 L533.988,514.094 L569.442,514.094 L569.442,559.767 L557.662,559.767 L555.872,549.143 Q550.733,555.206 546.634,557.689 Q539.589,562.019 529.311,562.019 Q512.393,562.019 501.595,550.298 Q490.336,538.518 490.336,518.078 Q490.336,497.406 501.711,484.934 Q513.086,472.462 531.794,472.462 Q548.019,472.462 557.864,480.69 Q567.709,488.918 569.153,501.217 z" fill="#F6BD16"/>
  </g>
</svg>
